PathFileType	4	(X/Y/Z)	C:/Users/opensim2020/Desktop/walking_exp_matlab/subject01_walking13_straight_03.trc																																																																																																																												
DataRate	CameraRate	NumFrames	NumMarkers	Units	OrigDataRate	OrigDataStartFrame	OrigNumFrames																																																																																																																								
100	100	7	42	mm	100	1679	128																																																																																																																								
Frame#	Time	LFHD			RFHD			LBHD			RBHD			C7			T10			CLAV			STRN			RBAK			LSHO			LUPA			LELB			LFRM			LWRA			LWRB			LFIN			RSHO			RUPA			RELB			RFRM			RWRA			RWRB			RFIN			LASI			RASI			LPSI			RPSI			LTHI			LKNE			LTIB			LANK			LHEE			LTOE			RTHI			RKNE			RTIB			RANK			RHEE			RTOE			*39			*40			*41		
		X1	Y1	Z1	X2	Y2	Z2	X3	Y3	Z3	X4	Y4	Z4	X5	Y5	Z5	X6	Y6	Z6	X7	Y7	Z7	X8	Y8	Z8	X9	Y9	Z9	X10	Y10	Z10	X11	Y11	Z11	X12	Y12	Z12	X13	Y13	Z13	X14	Y14	Z14	X15	Y15	Z15	X16	Y16	Z16	X17	Y17	Z17	X18	Y18	Z18	X19	Y19	Z19	X20	Y20	Z20	X21	Y21	Z21	X22	Y22	Z22	X23	Y23	Z23	X24	Y24	Z24	X25	Y25	Z25	X26	Y26	Z26	X27	Y27	Z27	X28	Y28	Z28	X29	Y29	Z29	X30	Y30	Z30	X31	Y31	Z31	X32	Y32	Z32	X33	Y33	Z33	X34	Y34	Z34	X35	Y35	Z35	X36	Y36	Z36	X37	Y37	Z37	X38	Y38	Z38	X39	Y39	Z39	X40	Y40	Z40	X41	Y41	Z41	X42	Y42	Z42
																																																																																																																															
81	0.8	232.99236	1673.90527	-1089.74304	245.20532	1673.09033	-976.112	114.56005	1636.06335	-1085.4137	124.52539	1633.94556	-965.03064	68.61634	1439.66931	-1051.75171	24.6076	1145.19128	-1045.93286	210.39912	1366.18103	-1050.17249	247.67519	1211.11499	-1060.00732	5.50409	1244.71375	-978.6571	149.83617	1407.4082	-1209.52661	103.08202	1234.91064	-1302.36035	81.00698	1082.94702	-1316.604	144.34691	982.54108	-1336.95679	248.98268	893.5719	-1312.23462	199.22794	873.41229	-1338.23987	263.68118	821.70502	-1347.96667	144.30984	1392.04333	-899.43475	68.36655	1202.0011	-798.51251	56.51418	1076.51709	-788.87842	87.40586	957.2937	-761.51361	170.95218	846.41132	-787.7251	129.81691	842.87524	-747.12817	178.04692	777.17023	-741.80432	200.39629	941.85156	-1159.11987	207.57542	941.31464	-941.69214	16.49072	946.55493	-1102.13562	21.36531	950.69446	-957.19171	231.33374	618.40961	-1234.83813	243.26016	486.19376	-1232.4176	102.10854	371.80286	-1231.76648	-54.43757	220.84633	-1177.70325	-93.62504	229.86433	-1115.45557	-3.45467	81.70313	-1190.97693	170.02785	603.72363	-902.62482	188.8008	447.09402	-938.66791	138.73967	277.03357	-935.7077	108.79986	76.22506	-995.6571	55.66433	39.89925	-1043.81177	248.23874	37.30074	-1006.93011	235.82027	1708.64502	-997.59589	1973.11011	1023.45752	-3101.87524	2012.58972	1022.1557	-3140.70093
82	0.81	245.21407	1674.00354	-1089.979	257.48727	1673.25085	-976.20465	126.73868	1636.50366	-1085.56018	136.65671	1634.55127	-965.20135	80.01861	1440.15295	-1051.56787	35.83944	1145.77783	-1045.4353	221.83995	1366.55408	-1050.0459	258.90088	1211.44971	-1059.58838	16.84774	1245.59375	-977.7063	161.08199	1407.69751	-1209.28992	112.97572	1235.31177	-1301.80029	88.52269	1083.61206	-1314.776	147.95088	981.11768	-1335.52563	249.44423	887.96283	-1311.00427	198.77911	869.93988	-1336.84827	261.00342	815.45532	-1346.69653	155.83116	1392.85852	-899.31836	81.51038	1202.81812	-797.2674	70.78806	1076.98047	-787.23138	105.51283	958.54865	-760.66846	192.37054	850.55511	-788.4173	151.8098	845.63318	-747.23425	202.27809	781.52637	-742.70386	212.13242	942.62634	-1157.9978	218.02498	941.58929	-940.11279	27.89133	947.52698	-1102.78052	31.84911	951.68781	-957.80615	248.21962	621.2359	-1234.57397	262.35321	489.2673	-1231.87964	123.84503	371.6235	-1230.82959	-27.65037	215.69424	-1177.06689	-68.2519	222.18956	-1115.15198	31.04608	80.31725	-1191.29553	175.65953	603.80884	-902.26892	192.06488	446.68701	-937.89771	139.82097	277.02228	-935.42816	108.79773	76.46829	-995.68964	55.79869	40.51661	-1044.04663	248.4792	37.27219	-1006.86456	248.15965	1708.86096	-997.83661	1973.15442	1023.4209	-3101.95435	2012.56213	1022.18378	-3140.72363
83	0.82	257.51971	1673.99792	-1090.09314	269.66241	1673.22705	-976.45404	138.86137	1636.81311	-1085.88513	148.69847	1635.00586	-965.45386	91.52383	1440.53455	-1051.37939	46.99975	1146.21399	-1044.98413	233.2366	1366.74939	-1049.85693	270.13553	1211.67493	-1059.16943	27.64329	1246.4021	-976.87457	172.39079	1407.87048	-1209.14893	122.76269	1235.52832	-1301.24792	96.15557	1084.1731	-1313.03979	151.74382	979.69904	-1334.00659	249.75598	882.61908	-1309.6084	198.35559	866.67999	-1335.46191	258.36639	809.69653	-1345.51672	167.44473	1393.56006	-899.12964	94.69133	1203.66956	-796.07117	84.73729	1077.46814	-785.57788	123.30148	959.78583	-759.9624	213.09583	854.68738	-788.83484	173.71233	848.41534	-747.49506	226.23666	786.09106	-743.7345	223.73517	943.5	-1156.55823	228.26056	941.63226	-938.88879	39.26767	948.35187	-1103.24915	42.21492	952.19257	-958.52307	264.74094	623.85297	-1234.36804	281.01129	492.22238	-1231.21655	145.68387	370.66684	-1229.82532	-0.17404	209.53334	-1176.65857	-42.13985	213.49442	-1114.86292	66.46622	78.33991	-1191.58606	181.40302	603.70404	-901.96857	195.20821	446.3952	-937.72693	140.91403	277.18484	-935.23547	109.18824	76.85066	-995.64996	56.12888	41.21759	-1044.34766	248.55862	37.14087	-1006.84961	260.25818	1708.68591	-998.57483	1973.06641	1023.41711	-3102.02515	2012.45276	1022.07892	-3140.81543
84	0.83	269.71378	1673.79163	-1090.53979	281.87814	1673.29712	-976.77094	151.01698	1636.95569	-1086.19336	160.80281	1635.40833	-965.71112	102.99724	1440.73181	-1051.35339	58.28494	1146.48828	-1044.59509	244.62851	1366.82654	-1049.70557	281.43909	1211.72498	-1058.68347	39.20536	1246.90405	-976.10712	183.713	1407.80627	-1209.08032	132.37981	1235.56055	-1300.6842	103.89294	1084.58447	-1311.31616	155.70915	978.33197	-1332.56079	250.17458	877.48047	-1308.47253	198.00223	863.62439	-1334.19312	255.80029	804.30292	-1344.26062	179.08539	1394.11511	-899.03723	107.38496	1204.31982	-794.99939	98.53172	1077.75134	-784.04919	141.17741	961.31396	-759.13708	234.43089	859.87823	-789.53827	195.27371	851.45709	-747.86426	250.07948	791.18573	-744.8562	235.27818	943.95624	-1155.38831	238.44498	941.44812	-937.72937	50.52693	948.95459	-1103.67151	52.95504	952.58728	-959.16394	281.07968	626.32898	-1234.32373	299.37213	494.90173	-1230.32141	167.70065	369.04074	-1229.04553	27.71709	202.24748	-1176.31018	-15.01862	203.64082	-1114.63599	102.06821	75.98838	-1192.16431	187.48988	603.5119	-901.77533	198.33466	446.00067	-936.87714	142.23958	277.48645	-935.02887	109.3456	77.13953	-995.93683	55.40906	42.44769	-1044.56763	248.89003	37.13879	-1006.84747	272.70279	1708.88391	-998.57825	1973.15417	1023.51251	-3101.88086	2012.50073	1022.05048	-3140.80859
85	0.84	281.92337	1673.57349	-1090.91675	293.99963	1673.15393	-977.0155	163.09933	1636.97498	-1086.56445	172.82393	1635.59668	-966.11096	114.6599	1440.84558	-1051.21631	69.45683	1146.67578	-1044.17981	256.0773	1366.74426	-1049.65552	292.66977	1211.64099	-1058.26636	50.77793	1247.20544	-975.5235	195.04227	1407.54163	-1209.0625	141.9314	1235.41333	-1300.1283	111.81781	1084.86475	-1309.72388	159.79863	977.02484	-1331.22266	250.62325	872.49213	-1307.20447	197.79869	860.84479	-1333.05774	253.38936	799.29956	-1343.12195	190.64058	1394.45813	-899.00372	119.85626	1204.83264	-794.00641	112.14042	1077.92798	-782.50977	158.58745	962.49091	-758.55609	254.84439	864.32562	-790.19171	216.78127	854.86841	-748.32092	273.98801	796.60638	-746.0235	246.78146	944.29736	-1154.38684	248.35439	941.01288	-937.052	61.77919	949.35004	-1104.12964	63.42445	952.79669	-959.60016	297.16846	628.58362	-1234.34985	317.39355	497.49091	-1229.51208	189.86176	366.72775	-1228.44177	56.40799	194.2538	-1176.01111	13.07908	192.87187	-1114.42163	137.78751	73.44942	-1193.09949	193.82852	603.28485	-901.61328	201.54814	445.59412	-936.46313	144.08218	277.73401	-934.89368	109.88731	77.73669	-996.08081	55.72727	43.13688	-1045.07019	249.01358	36.94702	-1006.82843	284.71823	1708.53174	-999.41681	1973.13477	1023.47168	-3101.90063	2012.49792	1022.06323	-3140.77783
86	0.85	294.1088	1673.17151	-1091.42224	305.93097	1672.94507	-977.81812	175.15617	1636.86938	-1087.02686	184.78755	1635.72827	-966.60657	126.26315	1440.76892	-1051.375	80.74957	1146.70569	-1043.85339	267.50595	1366.54578	-1049.55859	303.98047	1211.38989	-1057.83948	62.34051	1247.29846	-975.11255	206.41725	1407.22437	-1209.15759	151.48463	1235.04553	-1299.41931	119.85868	1085.03479	-1308.18518	164.14799	975.81897	-1329.92957	251.11223	867.93744	-1306.15833	197.85854	858.26263	-1332.0874	251.18846	794.6637	-1342.13916	202.34203	1394.68213	-898.95172	132.17953	1205.25525	-793.06549	125.67554	1077.99634	-781.03699	176.05304	963.81909	-757.98328	275.42175	869.35815	-791.09137	238.11284	858.36566	-748.79688	297.23941	802.01233	-747.27655	258.29471	944.42169	-1153.8302	258.85733	940.63843	-935.89746	72.95834	949.62579	-1104.47754	73.80953	952.76959	-960.04974	313.01514	630.60468	-1234.31323	335.08908	499.67926	-1228.49329	212.16829	363.70883	-1227.90576	85.75974	185.73596	-1175.8418	42.15518	181.40729	-1114.14673	174.21594	70.67505	-1194.2887	200.19171	602.93408	-901.49341	204.94987	445.08939	-936.66339	146.07927	278.18777	-934.77405	110.12183	78.16868	-996.27545	55.90678	44.10524	-1045.19495	249.21243	36.90568	-1006.83905	297.14322	1708.51624	-999.48383	1973.22839	1023.46655	-3101.91406	2012.53674	1022.08575	-3140.63965
87	0.86	306.21619	1672.66809	-1091.84204	317.98801	1672.69385	-978.28912	187.24825	1636.68311	-1087.54932	196.74779	1635.75256	-967.0719	137.96802	1440.65405	-1051.26343	92.08664	1146.68213	-1043.61084	278.99567	1366.2179	-1049.54004	315.36755	1210.98535	-1057.43213	73.99669	1247.33838	-974.76099	217.90858	1406.61951	-1209.26367	161.02757	1234.54004	-1298.79834	128.03004	1085.00098	-1306.62671	168.71964	974.69727	-1328.71753	251.78685	863.59448	-1305.27698	198.19714	855.95465	-1331.33948	249.10571	790.28265	-1341.17981	214.02014	1394.66858	-899.01746	144.28719	1205.43787	-792.2431	139.25748	1077.96997	-779.52271	193.29028	965.14642	-757.38123	295.7869	874.43591	-791.99506	259.19479	861.97046	-749.35284	320.3266	807.72839	-748.75787	269.62506	944.45789	-1153.03369	269.14056	940.00873	-935.17816	84.15923	949.69031	-1104.85168	84.20162	952.75055	-960.37732	328.57574	632.38831	-1234.20178	352.33447	501.45267	-1227.46094	234.57265	360.09796	-1227.41003	115.68154	176.39351	-1175.62085	72.73392	169.18536	-1113.92554	211.10756	67.83839	-1195.80994	206.73526	602.60382	-901.41168	208.63245	444.71814	-936.43677	147.94893	278.47894	-934.81714	110.60789	78.60984	-996.44324	55.85566	45.41341	-1045.74976	249.39656	36.89636	-1006.83307	309.09244	1708.05054	-1000.56677	1973.21082	1023.38861	-3101.86621	2012.51233	1021.9809	-3140.59277
